<?xml version="1.0" encoding="UTF-8" standalone="no"?>
<!-- Created with Inkscape (http://www.inkscape.org/) -->

<svg
   version="1.1"
   id="svg3471"
   width="1024"
   height="1024"
   viewBox="0 0 1024 1024"
   sodipodi:docname="breadBoi.svg"
   inkscape:version="1.2.2 (b0a84865, 2022-12-01)"
   xmlns:inkscape="http://www.inkscape.org/namespaces/inkscape"
   xmlns:sodipodi="http://sodipodi.sourceforge.net/DTD/sodipodi-0.dtd"
   xmlns="http://www.w3.org/2000/svg"
   xmlns:svg="http://www.w3.org/2000/svg">
  <defs
     id="defs3475" />
  <sodipodi:namedview
     id="namedview3473"
     pagecolor="#ffffff"
     bordercolor="#000000"
     borderopacity="0.25"
     inkscape:showpageshadow="2"
     inkscape:pageopacity="0.0"
     inkscape:pagecheckerboard="0"
     inkscape:deskcolor="#d1d1d1"
     showgrid="false"
     inkscape:zoom="0.62186564"
     inkscape:cx="549.15399"
     inkscape:cy="563.62657"
     inkscape:window-width="1470"
     inkscape:window-height="763"
     inkscape:window-x="0"
     inkscape:window-y="37"
     inkscape:window-maximized="0"
     inkscape:current-layer="g3477" />
  <g
     inkscape:groupmode="layer"
     inkscape:label="Image"
     id="g3477">
    <path
       style="display:inline;fill:#594b28;fill-opacity:1;stroke-width:7.55906;stroke-linecap:round;stroke-linejoin:round"
       d="m 190.45915,549.97754 c -10.5776,26.51909 -16.88751,54.79906 -17.11993,71.68968 -0.48169,35.00551 -2.88419,72.51423 2.67499,104.85953 3.83106,22.29049 17.60951,49.77474 39.58982,55.10475 129.56301,31.41776 242.91669,46.32623 353.09842,64.19971 41.6523,6.75676 74.52331,0.84931 98.21909,-8.08817 38.83534,-14.64777 116.84995,-41.13161 116.84995,-41.13161 51.11618,-20.68474 63.35147,-52.61532 65.26971,-85.59961 2.70602,-46.53008 3.76431,-91.05171 -4.27998,-133.74941 -1.83386,-9.73384 -3.06766,-15.32253 -11.76995,-27.28487 18.57052,-16.02415 29.54944,-40.22387 27.81988,-78.10965 -2.22305,-54.58815 -37.42409,-96.09098 -75.28032,-127.96733 -55.58924,-46.8082 -131.76689,-68.86082 -203.98843,-76.93676 -82.48566,-9.22369 -172.29028,-2.66526 -246.6339,34.23985 -60.26481,29.91621 -105.21304,58.95842 -151.90469,137.31347 -17.89946,35.23888 -16.85386,73.09496 7.45534,111.46042 z"
       id="path3604"
       sodipodi:nodetypes="cssssscssccaascc" />
    <path
       style="fill:#c0a564;fill-opacity:1;stroke-width:7.55906;stroke-linecap:round;stroke-linejoin:round"
       d="m 220.68306,545.93061 c -6.69457,21.37359 -15.88752,43.50496 -18.78374,66.28739 -4.71878,37.11911 -0.4329,80.05477 2.60802,112.22325 0.97931,10.35962 9.51679,21.86318 19.64195,24.26358 122.22824,28.97699 262.45092,45.85539 383.59568,65.8583 0.20067,-74.90826 16.37264,-148.36459 -18.48654,-226.46011 5.43306,5.43306 43.38172,-66.90814 7.51016,-120.7402 C 558.8272,410.42459 470.45086,364.97571 394.83952,363.98404 324.91798,363.067 236.92758,386.1521 205.66275,454.65332 c -23.99762,52.57877 15.02031,91.27729 15.02031,91.27729 z"
       id="path3606"
       sodipodi:nodetypes="cassccsasc" />
    <path
       style="fill:#c0a564;fill-opacity:1;stroke-width:7.55906;stroke-linecap:round;stroke-linejoin:round"
       d="m 295.44708,350.08878 c 80.14197,-60.39139 294.3168,-79.79645 395.43097,-31.10112 101.11417,48.69533 186.87004,151.31174 114.18606,220.51529 26.78774,64.09503 17.67979,122.82326 12.04715,174.94562 -1.93223,17.88018 -15.68833,35.79629 -31.95114,43.47451 -42.63319,20.12857 -146.90733,50.19309 -146.661,52.90271 -0.92924,1.48679 3.03677,-98.44294 0.52379,-159.23194 -0.89658,-21.68838 -4.56649,-40.55339 -18.85641,-62.33092 19.4783,-22.54874 25.60023,-77.16168 12.57094,-112.61469 C 608.52326,410.76085 495.15478,312.58191 295.44708,350.08878 Z"
       id="path3608"
       sodipodi:nodetypes="czcsscscsc" />
    <path
       style="fill:#7e5938;fill-opacity:1;stroke-width:7.55906;stroke-linecap:round;stroke-linejoin:round"
       d="m 295.44708,350.08878 c 83.49051,-62.18244 286.1506,-82.25868 395.43097,-31.10112 18.21676,8.52783 38.04204,28.31572 45.31285,39.84863 2.48528,3.94213 3.51746,11.37524 -0.3494,13.97609 -6.92265,4.65617 -17.21572,-3.26569 -23.40996,-8.85447 -17.41884,-15.71621 -62.31583,-47.78539 -109.01356,-50.54394 38.45621,21.25977 57.34733,39.019 59.74781,41.92829 3.57775,4.3361 9.06061,9.0492 3.41671,16.51499 -5.98935,7.92276 -18.22723,0.72225 -25.42906,-3.9365 -18.06785,-11.68781 -98.74165,-66.06359 -163.17093,-61.84423 75.21372,18.60517 108.23156,45.87 113.51713,52.65093 2.82465,3.62378 3.44473,10.78169 -0.0335,13.78377 -6.21813,5.36698 -17.2063,0.44784 -24.38604,-3.54226 -20.21303,-11.23328 -102.95002,-79.57544 -271.63302,-18.88018 z"
       id="path4489"
       sodipodi:nodetypes="cssascssscsasc" />
    <path
       style="fill:#7e5938;fill-opacity:1;stroke-width:7.55906;stroke-linecap:round;stroke-linejoin:round"
       id="path4543"
       sodipodi:type="arc"
       sodipodi:cx="754.89075"
       sodipodi:cy="386.99289"
       sodipodi:rx="8.0623522"
       sodipodi:ry="6.7893491"
       sodipodi:start="0"
       sodipodi:end="6.2462188"
       sodipodi:open="true"
       sodipodi:arc-type="arc"
       d="m 762.9531,386.99289 a 8.0623522,6.7893491 0 0 1 -7.98784,6.78906 8.0623522,6.7893491 0 0 1 -8.13549,-6.66358 8.0623522,6.7893491 0 0 1 7.83748,-6.91222 8.0623522,6.7893491 0 0 1 8.28034,6.53582" />
    <path
       style="fill:#7e5938;fill-opacity:1;stroke-width:7.55906;stroke-linecap:round;stroke-linejoin:round"
       id="path4545"
       sodipodi:type="arc"
       sodipodi:cx="782.89685"
       sodipodi:cy="455.31073"
       sodipodi:rx="11.457026"
       sodipodi:ry="9.7596893"
       sodipodi:start="0"
       sodipodi:end="6.2462188"
       sodipodi:open="true"
       sodipodi:arc-type="arc"
       d="m 794.35388,455.31073 a 11.457026,9.7596893 0 0 1 -11.35115,9.75927 11.457026,9.7596893 0 0 1 -11.56095,-9.57889 11.457026,9.7596893 0 0 1 11.13747,-9.93632 11.457026,9.7596893 0 0 1 11.7668,9.39524" />
    <path
       style="fill:#7e5938;fill-opacity:1;stroke-width:7.55906;stroke-linecap:round;stroke-linejoin:round"
       id="path4547"
       sodipodi:type="arc"
       sodipodi:cx="303.82336"
       sodipodi:cy="574.54871"
       sodipodi:rx="18.67071"
       sodipodi:ry="16.973373"
       sodipodi:start="0"
       sodipodi:end="6.2462188"
       sodipodi:open="true"
       sodipodi:arc-type="arc"
       d="m 322.49407,574.54871 a 18.67071,16.973373 0 0 1 -18.49816,16.97264 18.67071,16.973373 0 0 1 -18.84007,-16.65894 18.67071,16.973373 0 0 1 18.14995,-17.28055 18.67071,16.973373 0 0 1 19.17553,16.33954" />
    <path
       style="fill:#7e5938;fill-opacity:1;stroke-width:7.55906;stroke-linecap:round;stroke-linejoin:round"
       id="path4549"
       sodipodi:type="arc"
       sodipodi:cx="454.88638"
       sodipodi:cy="585.58142"
       sodipodi:rx="18.67071"
       sodipodi:ry="16.973373"
       sodipodi:start="0"
       sodipodi:end="6.2462188"
       sodipodi:open="true"
       sodipodi:arc-type="arc"
       d="m 473.55709,585.58142 a 18.67071,16.973373 0 0 1 -18.49816,16.97265 18.67071,16.973373 0 0 1 -18.84007,-16.65894 18.67071,16.973373 0 0 1 18.14995,-17.28056 18.67071,16.973373 0 0 1 19.17553,16.33955" />
    <path
       style="fill:#7e5938;fill-opacity:1;stroke-width:7.55906;stroke-linecap:round;stroke-linejoin:round"
       d="m 368.71068,585.87503 c 1.08981,7.51108 15.8769,18.90629 22.72485,1.4203 4.83156,-12.33723 16.37087,-5.42365 17.04364,1.27827 0.96743,9.6372 -7.60968,28.63581 -25.99155,27.55388 -18.38187,-1.08193 -33.51572,-15.71761 -31.81479,-30.25245 0.95258,-8.13999 15.57892,-16.9472 18.03785,0 z"
       id="path4605"
       sodipodi:nodetypes="ssszss" />
  </g>
</svg>
